<!-- icon666.com - MILLIONS vector ICONS FREE --><svg id="Layer_1" enable-background="new 0 0 510 510" viewBox="0 0 510 510" xmlns="http://www.w3.org/2000/svg"><g><path d="m240 87.42v212.58l7.5 15 7.5-15 12-105-12-105-7.61-15z" fill="#003d9b"></path><path d="m270 87.42-7.39-12.42-7.61 15v210l7.5 15 7.5-15c0-11.814 0-200.767 0-212.58z" fill="#00307e"></path><path d="m240 300c-36.416 0-66.562 26.003-73.491 60l44.245 15 44.246-15 15-30-15-30c-5.246 0-9.754 0-15 0z" fill="#ffdf00"></path><path d="m270 300c-5.246 0-9.754 0-15 0v60l44.246 15 44.245-15c-6.933-34.019-37.098-60-73.491-60z" fill="#ffb62e"></path><path d="m65.729 60c-13.658 27.316-42.773 85.547-50.729 101.459l16.771 18.541 16.771-18.541c5.014-10.031 36.409-72.821 41.458-82.918 5.016 10.031 36.411 72.821 41.459 82.918l16.77 18.541 16.771-18.541c-13.658-27.316-42.773-85.547-50.729-101.459l-24.271-15z" fill="#ebe4f0"></path><path d="m395.729 60c-13.658 27.316-42.773 85.547-50.729 101.459l16.77 18.541 16.771-18.541c5.015-10.031 36.41-72.821 41.458-82.918 5.016 10.031 36.41 72.821 41.458 82.918l16.772 18.541 16.771-18.541c-13.658-27.316-42.773-85.547-50.73-101.459l-24.27-15z" fill="#cdcde4"></path><path d="m255 360c-10 0-170 0-180 0-41.354 0-75 33.644-75 75 0 41.354 33.643 75 75 75h180l15-75z" fill="#003d9b"></path><path d="m240 45c0-8.271 6.729-15 15-15 0-10.492 0-19.508 0-30-24.812 0-45 20.187-45 45 0 24.812 20.186 45 45 45 0-10.492 0-19.508 0-30-8.271 0-15-6.729-15-15z" fill="#cdcde4"></path><path d="m300 45c0-24.812-20.186-45-45-45v30c8.271 0 15 6.729 15 15s-6.729 15-15 15v30c24.812 0 45-20.186 45-45z" fill="#cdcde4"></path><path d="m225 45-12.42-15c-11.813 0-200.766 0-212.58 0v30h212.58z" fill="#003d9b"></path><path d="m285 45 12.42 15h212.58c0-10.492 0-19.508 0-30-11.814 0-200.767 0-212.58 0z" fill="#00307e"></path><path d="m240 45c0-8.271 6.729-15 15-15l15-15-15-15c-24.812 0-45 20.187-45 45 0 24.812 20.186 45 45 45l15-15-15-15c-8.271 0-15-6.729-15-15z" fill="#ffdf00"></path><path d="m300 45c0-24.812-20.186-45-45-45v30c8.271 0 15 6.729 15 15s-6.729 15-15 15v30c24.812 0 45-20.186 45-45z" fill="#ffb62e"></path><path d="m15 161.459c0 .675 0 3.69 0 3.541 0 41.354 33.644 75 75 75 41.354 0 75-33.644 75-75 0-.675 0-3.69 0-3.541-.188 0-149.812 0-150 0z" fill="#ffdf00"></path><path d="m345 165c0 41.354 33.643 75 75 75 41.354 0 75-33.644 75-75 0-.675 0-3.69 0-3.541-.188 0-149.813 0-150 0 0 .675 0 3.69 0 3.541z" fill="#ffb62e"></path><path d="m471.414 390h38.586v-30h-255v150h255v-30h-38.586l-38.88-30v-30z" fill="#00307e"></path><path d="m255 390c-10 0-170 0-180 0-24.812 0-45 20.185-45 45 0 24.812 20.186 45 45 45h180l15-45z" fill="#fdf3f3"></path><path d="m452.534 420c3.676-11.146 10.917-21.329 18.88-30h-216.414v45l22.667 12.667 27.333-12.667z" fill="#ebe4f0"></path><path d="m452.534 450-147.534-15h-50v45h216.414c-7.965-8.673-15.205-18.856-18.88-30z" fill="#ebe4f0"></path><path d="m452.534 420c-10.961 0-136.573 0-147.534 0v30h147.534c-3.476-10.54-3.275-20.07 0-30z" fill="#cdcde4"></path></g></svg>